<?xml version="1.0" encoding="utf-8"?>
<!-- Generator: Adobe Illustrator 16.0.0, SVG Export Plug-In . SVG Version: 6.00 Build 0)  -->
<!DOCTYPE svg PUBLIC "-//W3C//DTD SVG 1.1//EN" "http://www.w3.org/Graphics/SVG/1.1/DTD/svg11.dtd">
<svg version="1.1" id="Layer_1" xmlns="http://www.w3.org/2000/svg" xmlns:xlink="http://www.w3.org/1999/xlink" x="0px" y="0px"
	 width="269.16px" height="46.191px" viewBox="0 0 269.16 46.191" enable-background="new 0 0 269.16 46.191" xml:space="preserve">
<g>
	<polygon fill="#F35444" points="245.853,45.692 211.692,45.692 211.692,36.908 233.593,10.922 212.485,10.922 212.485,2.504 
		245.121,2.504 245.121,10.922 223.649,36.908 245.849,36.908 245.849,45.692 	"/>
	<polygon fill="#F35444" points="269.159,25.692 249.233,25.692 249.233,20.568 262.007,5.41 249.696,5.41 249.696,0.5 268.731,0.5 
		268.731,5.41 256.208,20.568 269.16,20.568 269.16,25.692 	"/>
</g>
<path fill="#FFFFFF" d="M158.368,45.691h-12.444l-18.851-30.744h-0.122v30.744h-9.517V2.504h12.939l18.361,30.011h0.121V2.504h9.517
	v43.187H158.368z M48.996,45.691h-9.517V2.504h16.714c4.894,0,8.75,0.936,11.461,2.783c3.2,2.182,4.827,5.657,4.827,10.332
	c0.08,2.78-0.756,5.511-2.379,7.77c-1.717,2.189-4.204,3.643-6.954,4.064l10.978,18.237H62.72l-9.029-17.263h-4.7v17.263H48.996z
	 M48.996,10.554v9.822h5.612c3.182,0,7.991,0,7.991-4.82c0-4.483-4.212-5-7.381-5L48.996,10.554z M182.707,45.691h-15.555v-17h9.516
	v8.216h4.941c8.068,0,13.045-2.765,14.791-8.216h10.166c-0.984,5.193-4.039,9.763-8.459,12.659
	c-2.198,1.456-4.615,2.551-7.158,3.244C188.264,45.332,185.491,45.701,182.707,45.691z M109.812,45.691H79.373V2.504h29.341v8.784
	H88.889v8.051h18.727v8.784H88.889v8.784h20.923V45.691z M22.338,45.691h-9.517v-34.77H0.499V2.503h34.16v8.418H22.337
	L22.338,45.691z M176.667,20.691h-9.517V2.503h14.274c3.075-0.024,6.142,0.308,9.14,0.991c2.737,0.614,5.352,1.686,7.732,3.168
	c4.859,3.111,7.711,7.831,8.479,14.027h-9.996c-1.321-5.889-6.741-9.399-14.5-9.399h-5.611L176.667,20.691L176.667,20.691z"/>
</svg>
